<?xml version="1.0" encoding="utf-8"?>
<!-- Svg Vector Icons : http://www.onlinewebfonts.com/icon -->
<!DOCTYPE svg PUBLIC "-//W3C//DTD SVG 1.1//EN" "http://www.w3.org/Graphics/SVG/1.1/DTD/svg11.dtd">
<svg version="1.1" xmlns="http://www.w3.org/2000/svg" xmlns:xlink="http://www.w3.org/1999/xlink" x="0px" y="0px" viewBox="0 0 256 256" enable-background="new 0 0 256 256" xml:space="preserve">
<metadata> Svg Vector Icons : http://www.onlinewebfonts.com/icon </metadata>
<g><g><g><path fill="#000000" d="M175.1,104.2V80.9h-35.4V45.4h-23.3v35.4H80.9v23.3h35.4v35.4h23.3v-35.4H175.1z M128,10c22.9,0,42.4,8,58.4,24.1c16.1,16.1,24.1,35.5,24.1,58.4c0,11.4-2.9,24.6-8.6,39.3c-5.7,14.8-12.6,28.6-20.8,41.5c-8.1,12.9-16.2,25-24.1,36.3s-14.7,20.2-20.2,26.9L128,246c-2.2-2.6-5.2-6-8.9-10.3c-3.7-4.2-10.3-12.7-19.9-25.5c-9.6-12.7-18-25.1-25.2-37.1c-7.2-12-13.8-25.6-19.7-40.7c-5.9-15.1-8.9-28.4-8.9-39.9c0-22.9,8-42.4,24.1-58.4S105.1,10,128,10z"/></g></g></g>
</svg>