<?xml version="1.0" encoding="utf-8"?>
<!-- Svg Vector Icons : http://www.onlinewebfonts.com/icon -->
<!DOCTYPE svg PUBLIC "-//W3C//DTD SVG 1.1//EN" "http://www.w3.org/Graphics/SVG/1.1/DTD/svg11.dtd">
<svg version="1.1" xmlns="http://www.w3.org/2000/svg" xmlns:xlink="http://www.w3.org/1999/xlink" x="0px" y="0px" viewBox="0 0 256 256" enable-background="new 0 0 256 256" xml:space="preserve">
<metadata> Svg Vector Icons : http://www.onlinewebfonts.com/icon </metadata>
<g><g><g><path fill="#000000" d="M117.8,10.3c-28,3.5-52.2,18.3-67.7,41.2c-7.5,11.2-12.2,22.8-14.6,36.2c-1.1,6.1-1.5,18.8-0.8,24.3c3.2,24.3,18.9,53.5,46.8,87c11.7,14.1,26.5,29.8,38.9,41.3c4.8,4.5,6.3,5.6,7.6,5.6c1.8,0,7.6-5.1,20.2-17.6c39.9-39.8,64.6-77,72-108.5c1.3-5.7,1.4-7.1,1.5-16.5c0-10.8-0.4-14.3-2.6-23c-2.7-10.6-6.9-19.9-13-28.9c-14.6-21.7-36.8-36.1-62.7-40.5C137.7,10.1,123.1,9.7,117.8,10.3z M135,18.1c22,1.9,41.7,11.6,56.4,27.6c18,19.7,26.2,47.2,21.2,71.4c-4.6,22.9-21.2,51.2-48.4,82.5c-6.9,8-21.1,22.9-28.7,30.1l-7.5,7.2l-8.5-8.5c-42.8-42.3-69.5-81.6-76-111.8c-3.5-15.8-0.6-34.7,7.7-51.4C55.4,57,60.1,50.5,67,43.5c16.2-16.5,35.4-24.8,60.1-25.9C128,17.6,131.6,17.8,135,18.1z"/><path fill="#000000" d="M121.9,42.1c-0.7,0.1-2.9,0.5-4.9,0.8c-11,1.8-22.8,7.8-31.6,16.1c-26.4,25.1-25.5,67.6,2,91.5c11.5,10,25.3,15.1,40.6,15.1c21,0,39.8-10.1,51.4-27.5c12.4-18.6,13.9-41.3,4.1-61.5c-8.5-17.3-24.1-29.4-43.2-33.6C136.7,42.2,124.5,41.6,121.9,42.1z M138.9,50.9c9.6,1.9,18.6,6.7,26,13.7c9.8,9.3,15.2,20,16.8,33.4c2,16.9-5.5,35.7-18.5,46.7c-18.6,15.7-44.5,17.3-64.8,4.2C76.2,134.3,67.8,105.1,79,81.2c2.7-5.8,5.7-10.1,10.6-15.1C102.4,52.8,120.6,47.2,138.9,50.9z"/><path fill="#000000" d="M125.4,70.6l-1.2,1l-0.2,14.2l-0.2,14.2h-12.7c-7,0-13.3,0-13.9,0c-3.1,0.1-4.4,4.7-1.9,6.7c1.3,1,2,1.1,15,1.1H124v13.7v13.7l1.5,1.5c1.9,1.9,3.4,1.9,5.3,0l1.5-1.5v-13.7v-13.7h13.6c12.9,0,13.7,0,15-1.1c1.7-1.3,1.9-4.1,0.3-5.6c-1.1-1.1-1.6-1.2-19.7-1.1l-9.1,0.1l-0.2-14.2l-0.2-14.2l-1.2-1c-0.7-0.5-1.9-1-2.6-1C127.3,69.6,126.1,70.1,125.4,70.6z"/></g></g></g>
</svg>